<svg width="124" height="104" viewBox="0 0 124 104" fill="none" xmlns="http://www.w3.org/2000/svg">
<rect x="42" y="64" width="40" height="40" rx="20" fill="#004CE8"/>
<path fill-rule="evenodd" clip-rule="evenodd" d="M67.2038 82.796L68.9998 81C69.545 80.4548 69.8176 80.1821 69.9634 79.888C70.2407 79.3285 70.2407 78.6715 69.9634 78.112C69.8176 77.8179 69.545 77.5453 68.9998 77C68.4545 76.4548 68.1819 76.1821 67.8878 76.0364C67.3282 75.7591 66.6713 75.7591 66.1117 76.0364C65.8176 76.1821 65.545 76.4548 64.9998 77L63.1811 78.8187C64.145 80.4693 65.5311 81.8448 67.2038 82.796ZM61.7267 80.2731L54.8562 87.1436C54.4311 87.5687 54.2186 87.7812 54.0788 88.0423C53.9391 88.3034 53.8801 88.5981 53.7623 89.1876L53.1469 92.2646C53.0803 92.5972 53.0471 92.7635 53.1417 92.8581C53.2363 92.9527 53.4026 92.9194 53.7352 92.8529L56.8122 92.2375C57.4016 92.1196 57.6964 92.0607 57.9575 91.9209C58.2186 91.7812 58.4311 91.5687 58.8562 91.1436L65.7456 84.2542C64.1239 83.2386 62.7522 81.8763 61.7267 80.2731Z" fill="white"/>
<g filter="url(#filter0_d_21_23316)">
<rect x="20.5" y="13.5" width="83" height="35" rx="16" fill="white" shape-rendering="crispEdges"/>
<path d="M39.1754 36.5C38.3594 36.5 37.9514 36.092 37.9514 35.276V25.034C37.9514 24.218 38.3594 23.81 39.1754 23.81H45.6014C46.2254 23.81 46.5374 24.11 46.5374 24.71C46.5374 25.334 46.2254 25.646 45.6014 25.646H40.1654V29.138H45.2054C45.8294 29.138 46.1414 29.444 46.1414 30.056C46.1414 30.668 45.8294 30.974 45.2054 30.974H40.1654V34.664H45.6014C46.2254 34.664 46.5374 34.97 46.5374 35.582C46.5374 36.194 46.2254 36.5 45.6014 36.5H39.1754ZM52.0069 36.68C51.2389 36.68 50.5609 36.494 49.9729 36.122C49.3969 35.75 48.9469 35.222 48.6229 34.538C48.2989 33.842 48.1369 33.026 48.1369 32.09C48.1369 31.142 48.2989 30.332 48.6229 29.66C48.9469 28.976 49.3969 28.448 49.9729 28.076C50.5609 27.704 51.2389 27.518 52.0069 27.518C52.6309 27.518 53.1949 27.656 53.6989 27.932C54.2029 28.208 54.5809 28.574 54.8329 29.03V24.8C54.8329 24.044 55.2049 23.666 55.9489 23.666C56.7049 23.666 57.0829 24.044 57.0829 24.8V35.492C57.0829 36.26 56.7109 36.644 55.9669 36.644C55.2229 36.644 54.8509 36.26 54.8509 35.492V35.114C54.5989 35.594 54.2209 35.978 53.7169 36.266C53.2129 36.542 52.6429 36.68 52.0069 36.68ZM52.6369 34.97C53.3089 34.97 53.8489 34.73 54.2569 34.25C54.6649 33.758 54.8689 33.038 54.8689 32.09C54.8689 31.13 54.6649 30.416 54.2569 29.948C53.8489 29.468 53.3089 29.228 52.6369 29.228C51.9649 29.228 51.4249 29.468 51.0169 29.948C50.6089 30.416 50.4049 31.13 50.4049 32.09C50.4049 33.038 50.6089 33.758 51.0169 34.25C51.4249 34.73 51.9649 34.97 52.6369 34.97ZM60.7319 25.898C60.3119 25.898 59.9819 25.796 59.7419 25.592C59.5139 25.376 59.3999 25.082 59.3999 24.71C59.3999 24.326 59.5139 24.032 59.7419 23.828C59.9819 23.624 60.3119 23.522 60.7319 23.522C61.6199 23.522 62.0639 23.918 62.0639 24.71C62.0639 25.502 61.6199 25.898 60.7319 25.898ZM60.7319 36.626C60.3719 36.626 60.0959 36.518 59.9039 36.302C59.7119 36.086 59.6159 35.786 59.6159 35.402V28.796C59.6159 27.98 59.9879 27.572 60.7319 27.572C61.4879 27.572 61.8659 27.98 61.8659 28.796V35.402C61.8659 35.786 61.7699 36.086 61.5779 36.302C61.3859 36.518 61.1039 36.626 60.7319 36.626ZM68.4358 36.68C66.1078 36.68 64.9438 35.528 64.9438 33.224V29.39H64.0078C63.4078 29.39 63.1078 29.108 63.1078 28.544C63.1078 27.98 63.4078 27.698 64.0078 27.698H64.9438V26.06C64.9438 25.304 65.3218 24.926 66.0778 24.926C66.8218 24.926 67.1938 25.304 67.1938 26.06V27.698H69.1018C69.7018 27.698 70.0018 27.98 70.0018 28.544C70.0018 29.108 69.7018 29.39 69.1018 29.39H67.1938V33.098C67.1938 33.674 67.3198 34.106 67.5718 34.394C67.8238 34.682 68.2318 34.826 68.7958 34.826C68.9998 34.826 69.1798 34.808 69.3358 34.772C69.4918 34.736 69.6298 34.712 69.7498 34.7C69.8938 34.688 70.0138 34.736 70.1098 34.844C70.2058 34.94 70.2538 35.144 70.2538 35.456C70.2538 35.696 70.2118 35.912 70.1278 36.104C70.0558 36.284 69.9178 36.41 69.7138 36.482C69.5578 36.53 69.3538 36.572 69.1018 36.608C68.8498 36.656 68.6278 36.68 68.4358 36.68ZM74.41 36.68C73.774 36.68 73.204 36.56 72.7 36.32C72.208 36.068 71.818 35.732 71.53 35.312C71.254 34.892 71.116 34.418 71.116 33.89C71.116 33.242 71.284 32.732 71.62 32.36C71.956 31.976 72.502 31.7 73.258 31.532C74.014 31.364 75.028 31.28 76.3 31.28H76.93V30.902C76.93 30.302 76.798 29.87 76.534 29.606C76.27 29.342 75.826 29.21 75.202 29.21C74.854 29.21 74.476 29.252 74.068 29.336C73.672 29.42 73.252 29.564 72.808 29.768C72.52 29.9 72.28 29.918 72.088 29.822C71.896 29.714 71.764 29.552 71.692 29.336C71.632 29.108 71.644 28.88 71.728 28.652C71.824 28.424 72.01 28.256 72.286 28.148C72.838 27.92 73.366 27.758 73.87 27.662C74.386 27.566 74.854 27.518 75.274 27.518C76.558 27.518 77.512 27.818 78.136 28.418C78.76 29.006 79.072 29.924 79.072 31.172V35.492C79.072 36.26 78.724 36.644 78.028 36.644C77.32 36.644 76.966 36.26 76.966 35.492V35.096C76.762 35.588 76.438 35.978 75.994 36.266C75.55 36.542 75.022 36.68 74.41 36.68ZM74.878 35.132C75.466 35.132 75.952 34.928 76.336 34.52C76.732 34.112 76.93 33.596 76.93 32.972V32.576H76.318C75.19 32.576 74.404 32.666 73.96 32.846C73.528 33.014 73.312 33.326 73.312 33.782C73.312 34.178 73.45 34.502 73.726 34.754C74.002 35.006 74.386 35.132 74.878 35.132ZM82.7077 36.644C81.9397 36.644 81.5557 36.26 81.5557 35.492V28.688C81.5557 27.932 81.9217 27.554 82.6537 27.554C83.3857 27.554 83.7517 27.932 83.7517 28.688V29.246C84.1837 28.214 85.1077 27.638 86.5237 27.518C87.0397 27.458 87.3277 27.752 87.3877 28.4C87.4477 29.036 87.1357 29.39 86.4517 29.462L86.0557 29.498C84.5797 29.642 83.8417 30.398 83.8417 31.766V35.492C83.8417 36.26 83.4637 36.644 82.7077 36.644Z" fill="#004CE8"/>
</g>
<path d="M66.4521 54.9005C64.4504 57.4834 60.5496 57.4834 58.5479 54.9005L53.2487 48.0629C50.7024 44.7773 53.0441 40 57.2008 40H67.7992C71.9559 40 74.2976 44.7773 71.7513 48.0629L66.4521 54.9005Z" fill="white"/>
<defs>
<filter id="filter0_d_21_23316" x="0.5" y="0.5" width="123" height="75" filterUnits="userSpaceOnUse" color-interpolation-filters="sRGB">
<feFlood flood-opacity="0" result="BackgroundImageFix"/>
<feColorMatrix in="SourceAlpha" type="matrix" values="0 0 0 0 0 0 0 0 0 0 0 0 0 0 0 0 0 0 127 0" result="hardAlpha"/>
<feOffset dy="7"/>
<feGaussianBlur stdDeviation="10"/>
<feComposite in2="hardAlpha" operator="out"/>
<feColorMatrix type="matrix" values="0 0 0 0 0.733802 0 0 0 0 0.751002 0 0 0 0 0.804167 0 0 0 0.4 0"/>
<feBlend mode="normal" in2="BackgroundImageFix" result="effect1_dropShadow_21_23316"/>
<feBlend mode="normal" in="SourceGraphic" in2="effect1_dropShadow_21_23316" result="shape"/>
</filter>
</defs>
</svg>
