<svg width="122" height="104" viewBox="0 0 122 104" fill="none" xmlns="http://www.w3.org/2000/svg">
<rect x="37" y="64" width="40" height="40" rx="20" fill="#FF3333"/>
<g filter="url(#filter0_d_21_23380)">
<rect x="12" y="13.5" width="90" height="35" rx="16" fill="white" shape-rendering="crispEdges"/>
<path d="M30.6916 36.5C29.8756 36.5 29.4676 36.092 29.4676 35.276V25.034C29.4676 24.218 29.8756 23.81 30.6916 23.81H37.1176C37.7416 23.81 38.0536 24.11 38.0536 24.71C38.0536 25.334 37.7416 25.646 37.1176 25.646H31.6816V29.138H36.7216C37.3456 29.138 37.6576 29.444 37.6576 30.056C37.6576 30.668 37.3456 30.974 36.7216 30.974H31.6816V34.664H37.1176C37.7416 34.664 38.0536 34.97 38.0536 35.582C38.0536 36.194 37.7416 36.5 37.1176 36.5H30.6916ZM40.8039 36.59C40.5399 36.59 40.3179 36.518 40.1379 36.374C39.9699 36.218 39.8799 36.02 39.8679 35.78C39.8679 35.54 39.9699 35.288 40.1739 35.024L42.6579 31.964L40.3539 29.12C40.1379 28.856 40.0359 28.604 40.0479 28.364C40.0599 28.124 40.1499 27.932 40.3179 27.788C40.4979 27.632 40.7199 27.554 40.9839 27.554C41.2599 27.554 41.4879 27.602 41.6679 27.698C41.8599 27.794 42.0339 27.944 42.1899 28.148L43.9539 30.416L45.7359 28.148C45.9039 27.944 46.0779 27.794 46.2579 27.698C46.4379 27.602 46.6599 27.554 46.9239 27.554C47.1999 27.554 47.4219 27.632 47.5899 27.788C47.7579 27.944 47.8419 28.142 47.8419 28.382C47.8539 28.622 47.7519 28.874 47.5359 29.138L45.2319 31.964L47.7339 35.024C47.9499 35.276 48.0519 35.522 48.0399 35.762C48.0279 36.002 47.9319 36.2 47.7519 36.356C47.5839 36.512 47.3619 36.59 47.0859 36.59C46.6059 36.59 46.2099 36.392 45.8979 35.996L43.9359 33.53L41.9919 35.996C41.8359 36.188 41.6679 36.338 41.4879 36.446C41.3079 36.542 41.0799 36.59 40.8039 36.59ZM54.0575 36.68C53.1335 36.68 52.3295 36.494 51.6455 36.122C50.9615 35.738 50.4335 35.198 50.0615 34.502C49.6895 33.806 49.5035 32.99 49.5035 32.054C49.5035 31.118 49.6895 30.314 50.0615 29.642C50.4335 28.958 50.9615 28.436 51.6455 28.076C52.3295 27.704 53.1335 27.518 54.0575 27.518C54.4535 27.518 54.8795 27.572 55.3355 27.68C55.8035 27.788 56.2415 27.968 56.6495 28.22C56.8895 28.364 57.0275 28.55 57.0635 28.778C57.1115 29.006 57.0815 29.216 56.9735 29.408C56.8775 29.6 56.7275 29.738 56.5235 29.822C56.3315 29.906 56.1095 29.876 55.8575 29.732C55.3055 29.42 54.7715 29.264 54.2555 29.264C53.4755 29.264 52.8695 29.51 52.4375 30.002C52.0175 30.482 51.8075 31.172 51.8075 32.072C51.8075 32.96 52.0175 33.662 52.4375 34.178C52.8695 34.682 53.4755 34.934 54.2555 34.934C54.7715 34.934 55.3055 34.784 55.8575 34.484C56.1095 34.34 56.3315 34.31 56.5235 34.394C56.7155 34.478 56.8535 34.622 56.9375 34.826C57.0215 35.018 57.0395 35.228 56.9915 35.456C56.9435 35.672 56.8055 35.852 56.5775 35.996C56.1815 36.236 55.7615 36.41 55.3175 36.518C54.8735 36.626 54.4535 36.68 54.0575 36.68ZM61.6858 36.68C59.6818 36.68 58.6798 35.558 58.6798 33.314V24.8C58.6798 24.044 59.0518 23.666 59.7958 23.666C60.5518 23.666 60.9298 24.044 60.9298 24.8V33.206C60.9298 34.286 61.3798 34.826 62.2798 34.826C62.3758 34.826 62.4658 34.826 62.5498 34.826C62.6338 34.814 62.7178 34.802 62.8018 34.79C62.9698 34.766 63.0838 34.814 63.1438 34.934C63.2038 35.042 63.2338 35.27 63.2338 35.618C63.2338 35.918 63.1738 36.152 63.0538 36.32C62.9338 36.488 62.7358 36.59 62.4598 36.626C62.2078 36.662 61.9498 36.68 61.6858 36.68ZM67.8138 36.68C65.6538 36.68 64.5738 35.468 64.5738 33.044V28.688C64.5738 27.932 64.9458 27.554 65.6898 27.554C66.4458 27.554 66.8238 27.932 66.8238 28.688V33.08C66.8238 33.704 66.9498 34.166 67.2018 34.466C67.4538 34.766 67.8558 34.916 68.4078 34.916C69.0078 34.916 69.4998 34.712 69.8838 34.304C70.2678 33.884 70.4598 33.332 70.4598 32.648V28.688C70.4598 27.932 70.8318 27.554 71.5758 27.554C72.3318 27.554 72.7098 27.932 72.7098 28.688V35.492C72.7098 36.26 72.3438 36.644 71.6118 36.644C70.8798 36.644 70.5138 36.26 70.5138 35.492V35.186C69.9258 36.182 69.0258 36.68 67.8138 36.68ZM76.3676 25.898C75.9476 25.898 75.6176 25.796 75.3776 25.592C75.1496 25.376 75.0356 25.082 75.0356 24.71C75.0356 24.326 75.1496 24.032 75.3776 23.828C75.6176 23.624 75.9476 23.522 76.3676 23.522C77.2556 23.522 77.6996 23.918 77.6996 24.71C77.6996 25.502 77.2556 25.898 76.3676 25.898ZM76.3676 36.626C76.0076 36.626 75.7316 36.518 75.5396 36.302C75.3476 36.086 75.2516 35.786 75.2516 35.402V28.796C75.2516 27.98 75.6236 27.572 76.3676 27.572C77.1236 27.572 77.5016 27.98 77.5016 28.796V35.402C77.5016 35.786 77.4056 36.086 77.2136 36.302C77.0216 36.518 76.7396 36.626 76.3676 36.626ZM81.1915 36.644C80.4235 36.644 80.0395 36.26 80.0395 35.492V28.688C80.0395 27.932 80.4055 27.554 81.1375 27.554C81.8695 27.554 82.2355 27.932 82.2355 28.688V29.246C82.6675 28.214 83.5915 27.638 85.0075 27.518C85.5235 27.458 85.8115 27.752 85.8715 28.4C85.9315 29.036 85.6195 29.39 84.9355 29.462L84.5395 29.498C83.0635 29.642 82.3255 30.398 82.3255 31.766V35.492C82.3255 36.26 81.9475 36.644 81.1915 36.644Z" fill="#FF3333"/>
</g>
<path d="M61.4521 54.9005C59.4504 57.4834 55.5496 57.4834 53.5479 54.9005L48.2487 48.0629C45.7024 44.7773 48.0441 40 52.2008 40H62.7992C66.9559 40 69.2976 44.7773 66.7513 48.0629L61.4521 54.9005Z" fill="white"/>
<path fill-rule="evenodd" clip-rule="evenodd" d="M48.75 77C48.75 76.5858 49.0858 76.25 49.5 76.25H64.5C64.9142 76.25 65.25 76.5858 65.25 77V94C65.25 94.4142 64.9142 94.75 64.5 94.75H49.5C49.0858 94.75 48.75 94.4142 48.75 94V77ZM50.25 77.75V93.25H63.75V77.75H50.25Z" fill="white"/>
<path fill-rule="evenodd" clip-rule="evenodd" d="M55 81.25C55.4142 81.25 55.75 81.5858 55.75 82V88.5C55.75 88.9142 55.4142 89.25 55 89.25C54.5858 89.25 54.25 88.9142 54.25 88.5V82C54.25 81.5858 54.5858 81.25 55 81.25Z" fill="white"/>
<path fill-rule="evenodd" clip-rule="evenodd" d="M59 81.25C59.4142 81.25 59.75 81.5858 59.75 82V88.5C59.75 88.9142 59.4142 89.25 59 89.25C58.5858 89.25 58.25 88.9142 58.25 88.5V82C58.25 81.5858 58.5858 81.25 59 81.25Z" fill="white"/>
<path fill-rule="evenodd" clip-rule="evenodd" d="M46.25 77C46.25 76.5858 46.5858 76.25 47 76.25H67C67.4142 76.25 67.75 76.5858 67.75 77C67.75 77.4142 67.4142 77.75 67 77.75H47C46.5858 77.75 46.25 77.4142 46.25 77Z" fill="white"/>
<path fill-rule="evenodd" clip-rule="evenodd" d="M53.9868 73.6395C54.1185 73.3993 54.3706 73.25 54.6445 73.25H59.3885C59.6647 73.25 59.9186 73.4018 60.0493 73.6451L61.6607 76.6451C61.7856 76.8775 61.7791 77.1585 61.6437 77.3849C61.5083 77.6114 61.2638 77.75 61 77.75H53C52.735 77.75 52.4897 77.6102 52.3547 77.3822C52.2197 77.1542 52.215 76.8718 52.3423 76.6395L53.9868 73.6395ZM55.0887 74.75L54.2664 76.25H59.7458L58.9401 74.75H55.0887Z" fill="white"/>
<defs>
<filter id="filter0_d_21_23380" x="-8" y="0.5" width="130" height="75" filterUnits="userSpaceOnUse" color-interpolation-filters="sRGB">
<feFlood flood-opacity="0" result="BackgroundImageFix"/>
<feColorMatrix in="SourceAlpha" type="matrix" values="0 0 0 0 0 0 0 0 0 0 0 0 0 0 0 0 0 0 127 0" result="hardAlpha"/>
<feOffset dy="7"/>
<feGaussianBlur stdDeviation="10"/>
<feComposite in2="hardAlpha" operator="out"/>
<feColorMatrix type="matrix" values="0 0 0 0 0.733802 0 0 0 0 0.751002 0 0 0 0 0.804167 0 0 0 0.4 0"/>
<feBlend mode="normal" in2="BackgroundImageFix" result="effect1_dropShadow_21_23380"/>
<feBlend mode="normal" in="SourceGraphic" in2="effect1_dropShadow_21_23380" result="shape"/>
</filter>
</defs>
</svg>
